<?xml version="1.0" encoding="UTF-8"?>
<svg xmlns="http://www.w3.org/2000/svg" viewBox="0 0 512 512" role="img" aria-label="MyTools">
  <rect width="512" height="512" rx="96" fill="#0f172a"/>
  <g fill="none" stroke="#e2e8f0" stroke-width="24" stroke-linecap="round" stroke-linejoin="round">
    <!-- simple wrench -->
    <path d="M172 336l140 -140c-24 -8 -40 -30 -40 -56 0 -32 26 -58 58 -58 10 0 20 2 28 7l-42 42 30 30 42 -42c5 8 7 18 7 28 0 32 -26 58 -58 58 -26 0 -48 -16 -56 -40l-140 140c-12 12 -32 12 -44 0 -12 -12 -12 -32 0 -44z"/>
  </g>
</svg>
